<?xml version="1.0" encoding="iso-8859-1"?>
<!-- Generator: Adobe Illustrator 19.0.0, SVG Export Plug-In . SVG Version: 6.00 Build 0)  -->
<svg version="1.1" id="Capa_1" xmlns="http://www.w3.org/2000/svg" xmlns:xlink="http://www.w3.org/1999/xlink" x="0px" y="0px"
	 viewBox="0 0 504.123 504.123" style="enable-background:new 0 0 504.123 504.123;" xml:space="preserve">
<circle style="fill:#E1E6E7;" cx="252.062" cy="252.062" r="252.062"/>
<path style="fill:#FBBD5E;" d="M408.025,79.557H91.372c-13.391,0-23.631,10.24-23.631,23.631v369.428
	c0,13.391,10.24,23.631,23.631,23.631h315.865c13.391,0,23.631-10.24,23.631-23.631V103.188
	C430.868,89.797,420.628,79.557,408.025,79.557z"/>
<path style="fill:#183651;" d="M408.025,503.335H91.372c-17.329,0-31.508-14.178-31.508-31.508v-368.64
	c0-17.329,14.178-31.508,31.508-31.508h315.865c17.329,0,31.508,14.178,31.508,31.508v369.428
	C438.745,489.945,425.354,503.335,408.025,503.335z M91.372,87.434c-8.665,0-15.754,7.089-15.754,15.754v369.428
	c0,8.665,7.089,15.754,15.754,15.754h315.865c8.665,0,15.754-7.089,15.754-15.754V103.188c0-8.665-7.089-15.754-15.754-15.754
	H91.372z"/>
<g>
	<rect x="99.249" y="111.065" style="fill:#FFFFFF;" width="300.111" height="353.674"/>
	<path style="fill:#FFFFFF;" d="M327.68,44.111h-42.535c0-19.692-15.754-35.446-35.446-35.446s-35.446,15.754-35.446,35.446h-42.535
		c-19.692,0-35.446,15.754-35.446,35.446l0,0c0,19.692,15.754,35.446,35.446,35.446h155.175c19.692,0,35.446-15.754,35.446-35.446
		l0,0C363.126,59.865,346.585,44.111,327.68,44.111z"/>
</g>
<path style="fill:#183651;" d="M327.68,122.88H171.717c-23.631,0-43.323-19.692-43.323-43.323s19.692-43.323,43.323-43.323h35.446
	c3.938-20.48,21.268-35.446,42.535-35.446s38.597,14.966,42.535,35.446h35.446c23.631,0,43.323,19.692,43.323,43.323
	S351.311,122.88,327.68,122.88z M171.717,51.988c-14.966,0-27.569,12.603-27.569,27.569s12.603,27.569,27.569,27.569h155.175
	c14.966,0,27.569-12.603,27.569-27.569s-12.603-27.569-27.569-27.569h-42.535c-4.726,0-7.877-3.151-7.877-7.877
	c0-14.966-12.603-27.569-27.569-27.569c-14.966,0-27.569,12.603-27.569,27.569c0,4.726-3.151,7.877-7.877,7.877
	C213.465,51.988,171.717,51.988,171.717,51.988z"/>
<circle style="fill:#173651;" cx="249.698" cy="43.323" r="7.877"/>
<path style="fill:#E1E6E7;" d="M317.44,87.434H181.957c-4.726,0-7.877-3.151-7.877-7.877c0-4.726,3.151-7.877,7.877-7.877H317.44
	c4.726,0,7.877,3.151,7.877,7.877C325.317,84.283,322.166,87.434,317.44,87.434z"/>
<path style="fill:#4FBF9F;" d="M167.778,433.231c-20.48,0-37.022-16.542-37.022-37.022c0-20.48,16.542-37.022,37.022-37.022
	s37.022,16.542,37.022,37.022C205.588,415.902,188.258,433.231,167.778,433.231z"/>
<polygon style="fill:#FFFFFF;" points="161.477,414.326 144.148,396.997 151.237,389.12 161.477,400.148 185.108,377.305 
	192.197,384.394 "/>
<path style="fill:#4FBF9F;" d="M167.778,331.618c-20.48,0-37.022-16.542-37.022-37.022c0-20.48,16.542-37.022,37.022-37.022
	s37.022,16.542,37.022,37.022C205.588,315.077,188.258,331.618,167.778,331.618z"/>
<polygon style="fill:#FFFFFF;" points="161.477,312.714 144.148,295.385 151.237,288.295 161.477,298.535 185.108,275.692 
	192.197,282.782 "/>
<path style="fill:#4FBF9F;" d="M167.778,230.006c-20.48,0-37.022-16.542-37.022-37.022s16.542-37.022,37.022-37.022
	s37.022,16.542,37.022,37.022C205.588,213.465,188.258,230.006,167.778,230.006z"/>
<polygon style="fill:#FFFFFF;" points="161.477,211.889 144.148,193.772 151.237,186.683 161.477,196.923 185.108,174.08 
	192.197,181.169 "/>
<g>
	<rect x="255.212" y="200.074" style="fill:#183651;" width="15.754" height="15.754"/>
	<rect x="293.809" y="200.074" style="fill:#183651;" width="15.754" height="15.754"/>
	<rect x="333.194" y="200.074" style="fill:#183651;" width="15.754" height="15.754"/>
	<rect x="246.548" y="162.265" style="fill:#183651;" width="111.065" height="15.754"/>
	<rect x="255.212" y="300.898" style="fill:#183651;" width="15.754" height="15.754"/>
	<rect x="293.809" y="300.898" style="fill:#183651;" width="15.754" height="15.754"/>
	<rect x="333.194" y="300.898" style="fill:#183651;" width="15.754" height="15.754"/>
	<rect x="246.548" y="263.877" style="fill:#183651;" width="111.065" height="15.754"/>
	<rect x="255.212" y="402.511" style="fill:#183651;" width="15.754" height="15.754"/>
	<rect x="293.809" y="402.511" style="fill:#183651;" width="15.754" height="15.754"/>
	<rect x="333.194" y="402.511" style="fill:#183651;" width="15.754" height="15.754"/>
	<rect x="246.548" y="365.489" style="fill:#183651;" width="111.065" height="15.754"/>
</g>
<g>
</g>
<g>
</g>
<g>
</g>
<g>
</g>
<g>
</g>
<g>
</g>
<g>
</g>
<g>
</g>
<g>
</g>
<g>
</g>
<g>
</g>
<g>
</g>
<g>
</g>
<g>
</g>
<g>
</g>
</svg>
