<?xml version="1.0" encoding="iso-8859-1"?>
<!-- Generator: Adobe Illustrator 19.0.0, SVG Export Plug-In . SVG Version: 6.00 Build 0)  -->
<svg version="1.1" id="Capa_1" xmlns="http://www.w3.org/2000/svg" xmlns:xlink="http://www.w3.org/1999/xlink" x="0px" y="0px"
	 viewBox="0 0 504.123 504.123" style="enable-background:new 0 0 504.123 504.123;" xml:space="preserve">
<circle style="fill:#FBBD5E;" cx="252.062" cy="252.062" r="252.062"/>
<circle style="fill:#FFFFFF;" cx="252.062" cy="252.062" r="185.108"/>
<path style="fill:#183651;" d="M252.062,445.046c-106.338,0-192.985-86.646-192.985-192.985S145.723,59.077,252.062,59.077
	s192.985,86.646,192.985,192.985S358.4,445.046,252.062,445.046z M252.062,74.831c-97.674,0-177.231,79.557-177.231,177.231
	s79.557,177.231,177.231,177.231s177.231-79.557,177.231-177.231S349.735,74.831,252.062,74.831z"/>
<path style="fill:#F06151;" d="M181.957,196.923l-34.658-18.905l-34.658,18.905c-6.302,3.151-10.24,10.24-10.24,18.117v27.569
	h89.797V215.04C192.197,207.163,188.258,200.074,181.957,196.923z"/>
<path style="fill:#E1E6E7;" d="M169.354,164.628c0,14.966-10.24,32.295-22.843,32.295s-22.843-17.329-22.843-32.295
	c0-14.966,10.24-22.843,22.843-22.843S169.354,149.662,169.354,164.628z"/>
<path style="fill:#2CA0DA;" d="M286.72,196.923l-34.658-18.905l-34.658,18.905c-6.302,3.151-10.24,10.24-10.24,18.117v27.569h89.797
	V215.04C296.96,207.163,293.022,200.074,286.72,196.923z"/>
<path style="fill:#E1E6E7;" d="M274.905,164.628c0,14.966-10.24,32.295-22.843,32.295c-12.603,0-22.843-17.329-22.843-32.295
	c0-14.966,10.24-22.843,22.843-22.843S274.905,149.662,274.905,164.628z"/>
<path style="fill:#F06151;" d="M391.483,196.923l-34.658-18.905l-34.658,18.905c-6.302,3.151-10.24,10.24-10.24,18.117v27.569
	h89.797V215.04C401.723,207.163,397.785,200.074,391.483,196.923z"/>
<path style="fill:#E1E6E7;" d="M379.668,164.628c0,14.966-10.24,32.295-22.843,32.295s-22.055-16.542-22.055-32.295
	s10.24-22.843,22.843-22.843C370.215,141.785,379.668,149.662,379.668,164.628z"/>
<path style="fill:#4FBF9F;" d="M233.945,327.68l-34.658-18.905l-34.658,18.905c-6.302,3.151-10.24,10.24-10.24,18.117v27.569h89.797
	v-27.569C244.185,337.92,240.246,330.831,233.945,327.68z"/>
<path style="fill:#E1E6E7;" d="M222.129,295.385c0,14.966-10.24,32.295-22.843,32.295s-22.055-16.542-22.055-32.295
	s10.24-22.843,22.843-22.843C212.677,272.542,222.129,280.418,222.129,295.385z"/>
<path style="fill:#FBBD5E;" d="M339.495,327.68l-34.658-18.905l-34.658,18.905c-6.302,3.151-10.24,10.24-10.24,18.117v27.569h89.797
	v-27.569C349.735,337.92,345.797,330.831,339.495,327.68z"/>
<path style="fill:#E1E6E7;" d="M326.892,295.385c0,14.966-10.24,32.295-22.843,32.295c-12.603,0-22.843-17.329-22.843-32.295
	s10.24-22.843,22.843-22.843C317.44,272.542,326.892,280.418,326.892,295.385z"/>
<g>
	<path style="fill:#183651;" d="M200.862,486.006c-3.938-0.788-7.877-1.575-11.815-3.151l3.938-14.966
		c3.938,0.788,7.089,1.575,11.028,2.363L200.862,486.006z M173.292,478.129c-5.514-1.575-10.24-3.938-14.966-5.514l6.302-14.178
		c4.726,2.363,9.452,3.938,14.178,5.514L173.292,478.129z M143.36,465.526c-4.726-2.363-9.452-4.726-14.178-7.877l7.877-13.391
		c4.726,2.363,8.665,4.726,13.391,7.089L143.36,465.526z M115.791,448.985c-4.726-3.151-8.665-6.302-13.391-9.452l9.452-12.603
		c3.938,3.151,7.877,6.302,11.815,9.452L115.791,448.985z M89.797,428.505c-3.938-3.938-7.877-7.089-11.815-11.028l11.028-11.028
		c3.151,3.938,7.089,7.089,11.028,11.028L89.797,428.505z M67.742,404.874c-3.151-3.938-7.089-8.665-10.24-12.603l12.603-9.452
		c3.151,3.938,6.302,7.877,9.452,11.815L67.742,404.874z M48.837,378.88c-3.151-4.726-5.514-9.452-7.877-14.178l14.178-7.089
		c2.363,4.726,4.726,8.665,7.877,13.391L48.837,378.88z M33.083,349.735c-2.363-4.726-3.938-10.24-6.302-14.966l14.966-5.514
		c1.575,4.726,3.938,9.452,5.514,14.178L33.083,349.735z M22.055,319.803c-1.575-5.514-3.151-10.24-3.938-15.754l15.754-3.151
		c0.788,4.726,2.363,10.24,3.938,14.966L22.055,319.803z"/>
	<path style="fill:#183651;" d="M303.262,486.006l-3.151-15.754c4.726-0.788,10.24-2.363,14.966-3.938l4.726,14.966
		C314.289,483.643,308.775,485.218,303.262,486.006z M334.769,477.342l-5.514-14.966c4.726-1.575,9.452-3.938,14.178-5.514
		l6.302,14.178C345.009,473.403,340.283,474.978,334.769,477.342z M364.702,463.951l-7.089-14.178
		c4.726-2.363,8.665-4.726,13.391-7.877l8.665,13.391C374.154,458.437,369.428,460.8,364.702,463.951z M392.271,446.622
		l-9.452-12.603c3.938-3.151,7.877-6.302,11.815-9.452l10.24,11.815C400.935,439.532,396.209,443.471,392.271,446.622z
		 M417.477,425.354l-11.028-11.028c3.938-3.151,7.089-7.089,11.028-11.028l11.815,11.028
		C425.354,418.265,421.415,422.203,417.477,425.354z M439.532,401.723l-12.603-9.452c3.151-3.938,6.302-7.877,9.452-11.815
		l12.603,8.665C445.834,393.058,442.683,397.785,439.532,401.723z M457.649,374.942l-13.391-7.877
		c2.363-3.938,4.726-8.665,7.089-13.391l14.178,7.089C463.163,365.489,460.8,370.215,457.649,374.942z M472.615,345.797
		l-14.178-6.302c2.363-4.726,3.938-9.452,5.514-14.178l14.966,5.514C476.554,335.557,474.978,341.071,472.615,345.797z
		 M483.643,315.077l-15.754-3.938c0.788-3.938,1.575-7.089,2.363-11.028l15.754,3.151
		C485.218,307.2,484.431,311.138,483.643,315.077z"/>
	<path style="fill:#183651;" d="M471.04,204.012c-0.788-4.726-2.363-10.24-3.938-14.966l14.966-4.726
		c1.575,5.514,3.151,10.24,3.938,15.754L471.04,204.012z M462.375,174.868c-1.575-4.726-3.938-9.452-5.514-14.178l14.178-6.302
		c2.363,4.726,3.938,10.24,6.302,14.966L462.375,174.868z M449.772,147.298c-2.363-4.726-4.726-8.665-7.877-13.391l13.391-8.665
		c3.151,4.726,5.514,9.452,7.877,14.178L449.772,147.298z M434.018,121.305c-3.151-3.938-6.302-7.877-9.452-11.815l11.815-10.24
		c3.151,3.938,7.089,8.665,10.24,12.603L434.018,121.305z M414.326,97.674c-3.151-3.938-7.089-7.089-11.028-11.028l11.028-11.815
		c3.938,3.938,7.877,7.089,11.815,11.028L414.326,97.674z M391.483,77.194c-3.938-3.151-7.877-6.302-11.815-9.452l8.665-12.603
		c4.726,3.151,8.665,6.302,13.391,9.452L391.483,77.194z M367.065,59.865c-4.726-2.363-8.665-4.726-13.391-7.089l7.089-14.178
		c4.726,2.363,9.452,4.726,14.178,7.877L367.065,59.865z M339.495,45.686c-4.726-2.363-9.452-3.938-14.178-5.514l5.514-14.966
		c5.514,1.575,10.24,3.938,14.966,5.514L339.495,45.686z M311.138,36.234c-3.938-0.788-7.089-1.575-11.028-2.363l3.151-15.754
		c3.938,0.788,7.877,1.575,11.815,3.151L311.138,36.234z"/>
	<path style="fill:#183651;" d="M33.083,204.012l-15.754-3.151c0.788-3.938,1.575-7.877,3.151-11.815l15.754,3.938
		C35.446,196.923,33.871,200.074,33.083,204.012z M40.172,178.806l-14.966-5.514c1.575-4.726,3.938-10.24,5.514-14.966l14.178,6.302
		C44.111,169.354,42.535,174.08,40.172,178.806z M52.775,150.449l-14.178-7.089c2.363-4.726,4.726-9.452,7.877-14.178l13.391,7.877
		C57.502,141.785,55.138,145.723,52.775,150.449z M67.742,124.455l-12.603-8.665c3.151-4.726,6.302-8.665,9.452-13.391l12.603,9.452
		C74.043,116.578,70.892,120.517,67.742,124.455z M87.434,100.825L75.618,89.797c3.938-3.938,7.877-7.877,11.028-11.815
		l11.028,11.028C93.735,93.735,90.585,96.886,87.434,100.825z M108.702,79.557l-10.24-11.815c3.938-3.151,8.665-7.089,12.603-10.24
		l9.452,12.603C117.366,73.255,112.64,76.406,108.702,79.557z M133.908,62.228l-8.665-13.391c4.726-3.151,9.452-5.514,14.178-7.877
		l7.089,14.178C142.572,56.714,137.846,59.077,133.908,62.228z M160.689,48.049l-6.302-14.178c4.726-2.363,10.24-3.938,14.966-6.302
		l5.514,14.966C170.142,43.323,165.415,45.686,160.689,48.049z M189.046,37.022l-4.726-14.966c5.514-1.575,10.24-3.151,15.754-3.938
		l3.151,15.754C199.286,34.658,193.772,35.446,189.046,37.022z"/>
</g>
<g>
</g>
<g>
</g>
<g>
</g>
<g>
</g>
<g>
</g>
<g>
</g>
<g>
</g>
<g>
</g>
<g>
</g>
<g>
</g>
<g>
</g>
<g>
</g>
<g>
</g>
<g>
</g>
<g>
</g>
</svg>
