<?xml version="1.0" encoding="iso-8859-1"?>
<!-- Generator: Adobe Illustrator 19.0.0, SVG Export Plug-In . SVG Version: 6.00 Build 0)  -->
<svg version="1.1" id="Capa_1" xmlns="http://www.w3.org/2000/svg" xmlns:xlink="http://www.w3.org/1999/xlink" x="0px" y="0px"
	 viewBox="0 0 504.123 504.123" style="enable-background:new 0 0 504.123 504.123;" xml:space="preserve">
<g>
	<rect x="419.052" y="58.154" style="fill:#183651;" width="15.754" height="15.754"/>
	<rect x="419.052" y="110.142" style="fill:#183651;" width="15.754" height="15.754"/>
	<rect x="419.052" y="162.129" style="fill:#183651;" width="15.754" height="15.754"/>
	<rect x="58.289" y="58.154" style="fill:#183651;" width="15.754" height="15.754"/>
	<rect x="58.289" y="110.142" style="fill:#183651;" width="15.754" height="15.754"/>
	<rect x="58.289" y="162.129" style="fill:#183651;" width="15.754" height="15.754"/>
</g>
<path style="fill:#FFFFFF;" d="M96.886,361.416h299.323c0-60.652-35.446-112.64-86.646-136.271
	c-14.178,13.391-34.658,22.843-60.652,22.843c-8.665,0-18.117-0.788-28.357-3.151c-10.24-1.575-25.206-7.877-37.809-18.905
	C131.545,249.563,96.886,300.763,96.886,361.416z"/>
<path style="fill:#183651;" d="M396.209,369.293H96.886c-4.726,0-7.877-3.151-7.877-7.877c0-60.652,35.446-117.366,90.585-143.36
	c3.151-1.575,6.302-0.788,8.665,1.575c14.178,13.391,29.932,16.542,33.871,17.329c9.452,2.363,18.117,3.151,26.782,3.151
	c22.055,0,40.96-7.089,55.138-20.48c2.363-2.363,5.514-2.363,8.665-1.575c55.138,25.994,91.372,81.92,91.372,143.36
	C404.086,365.354,400.935,369.293,396.209,369.293z M104.763,353.539h283.569c-3.151-50.412-32.295-96.098-77.194-118.942
	c-23.631,19.692-55.138,25.994-92.16,18.117c-12.603-2.363-25.994-8.665-37.022-17.329
	C137.058,257.44,107.126,303.126,104.763,353.539z"/>
<path style="fill:#F06151;" d="M138.634,325.182c7.877-22.843,22.843-43.323,42.535-57.502c10.24,5.514,21.268,10.24,32.295,11.815
	c11.815,2.363,23.631,3.938,35.446,3.938c22.843,0,44.111-5.514,63.015-15.754c19.692,14.178,34.658,34.658,42.535,57.502H138.634z"
	/>
<path style="fill:#FBBD5E;" d="M318.228,142.437c0,0-6.302,89.797-92.948,70.105c0,0-40.172-6.302-44.898-54.351l-3.938-13.391
	l-10.24-68.529l45.686-32.295l74.043-3.151l34.658,25.994v55.138L318.228,142.437z"/>
<path style="fill:#183651;" d="M248.911,223.569c-7.877,0-16.542-0.788-25.206-3.151c-15.754-2.363-46.474-18.117-51.2-60.652
	l-3.938-12.603v-0.788l-10.24-68.529c-0.788-3.151,0.788-6.302,3.151-7.877l45.686-32.295c1.575-0.788,2.363-1.575,3.938-1.575
	l74.043-3.151c1.575,0,3.938,0.788,4.726,1.575l35.446,25.994c2.363,1.575,3.151,3.938,3.151,6.302v55.138v0.788l-2.363,21.268
	C323.742,170.794,304.837,223.569,248.911,223.569z M183.532,142.437l3.938,13.391c0,0.788,0,0.788,0,1.575
	c3.938,41.748,38.597,47.262,38.597,47.262c7.877,1.575,15.754,2.363,22.055,2.363c55.926,0,61.44-63.015,61.44-65.378l2.363-21.268
	V70.757l-29.932-22.055l-69.317,3.151l-40.172,28.357L183.532,142.437z"/>
<path style="fill:#F06151;" d="M176.443,144.8c0,0,3.938-13.391-12.603-22.055c0,0-29.145-76.406,40.96-99.249
	c0,0-4.726-6.302-3.938-14.966c0,0,10.24,6.302,59.865,3.938c0,0,32.295,3.151,41.748,29.932c0,0,50.412,0,27.569,79.557
	c0,0-12.603,7.089-11.815,22.055c0,0,11.028-85.858-32.295-76.406c0,0-39.385,18.905-66.166-7.877
	C218.978,58.942,167.778,55.791,176.443,144.8z"/>
<path style="fill:#183651;" d="M176.443,152.677C175.655,152.677,175.655,152.677,176.443,152.677c-4.726,0-7.877-3.151-7.877-7.089
	c0-3.151-0.788-5.514-0.788-7.877c-1.575-3.151-3.938-5.514-7.877-7.877c-1.575-0.788-3.151-2.363-3.151-3.938
	c-0.788-1.575-14.966-40.172,0.788-73.255c7.089-14.966,19.692-26.782,36.234-33.871c-0.788-3.151-1.575-7.089-0.788-11.815
	c0-2.363,2.363-4.726,4.726-6.302c2.363-0.788,5.514-0.788,7.877,0.788c0,0,6.302,3.151,33.083,3.151c6.302,0,14.178,0,22.055-0.788
	h0.788c1.575,0,33.871,3.151,46.474,29.932c6.302,1.575,18.117,4.726,25.994,15.754c11.815,15.754,13.391,40.172,3.938,72.468
	c-0.788,2.363-1.575,3.938-3.938,4.726l0,0c0,0-5.514,3.151-7.089,9.452c0,4.726-0.788,7.089-0.788,7.089
	c-0.788,3.938-3.938,7.089-7.877,7.089c-3.938,0-7.089-3.151-7.877-7.089c0-3.151,0-6.302,0.788-8.665
	c1.575-26.782-1.575-48.049-9.452-56.714c-3.151-3.938-7.877-4.726-13.391-3.938c-3.938,1.575-16.542,7.089-33.083,7.089
	c-14.966,0-28.357-4.726-39.385-14.178c-3.938,0.788-11.815,2.363-18.905,9.452c-10.24,11.028-15.754,30.72-14.178,57.502
	c1.575,6.302,0.788,11.815,0.788,12.603C182.745,150.314,179.594,152.677,176.443,152.677z M210.314,17.982
	c0.788,1.575,1.575,3.938,0.788,6.302c0,3.151-2.363,4.726-4.726,5.514c-17.329,5.514-29.145,15.754-35.446,29.145
	c-8.665,18.117-5.514,40.172-3.151,51.988c2.363-19.692,7.877-34.658,18.117-44.898c13.391-14.966,29.932-14.966,33.083-14.966
	h0.788c1.575,0,3.938,0.788,4.726,2.363c7.877,7.877,18.117,11.815,30.72,11.815c14.966,0,26.782-5.514,26.782-5.514
	c0.788,0,0.788-0.788,1.575-0.788c11.815-3.151,22.055,0,29.145,7.877c7.877,7.877,11.815,21.268,13.391,34.658
	c3.151-18.905,1.575-33.083-4.726-41.748c-7.089-10.24-18.905-10.24-18.905-10.24c-3.151,0-6.302-2.363-7.089-5.514
	c-7.877-20.48-32.295-24.418-35.446-24.418c-7.877,0-15.754,0-22.055,0C225.28,19.557,216.615,19.557,210.314,17.982z"/>
<circle style="fill:#FFFFFF;" cx="88.222" cy="292.099" r="40.96"/>
<path style="fill:#183651;" d="M88.222,340.936c-26.782,0-48.837-22.055-48.837-48.837s22.055-48.837,48.837-48.837
	s48.837,22.055,48.837,48.837S115.003,340.936,88.222,340.936z M88.222,259.016c-18.117,0-33.083,14.966-33.083,33.083
	s14.966,33.083,33.083,33.083s33.083-14.966,33.083-33.083S106.338,259.016,88.222,259.016z"/>
<path style="fill:#E0E4E8;" d="M88.222,333.059c-44.111,0-80.345,35.446-80.345,80.345h160.689
	C168.566,368.505,132.332,333.059,88.222,333.059z"/>
<path style="fill:#183651;" d="M168.566,421.28H7.877c-4.726,0-7.877-3.151-7.877-7.877c0-48.837,39.385-88.222,88.222-88.222
	s88.222,39.385,88.222,88.222C176.443,417.342,173.292,421.28,168.566,421.28z M16.542,405.526h144.148
	c-3.938-36.234-34.658-64.591-72.468-64.591S20.48,369.293,16.542,405.526z"/>
<circle style="fill:#FFFFFF;" cx="252.062" cy="374.806" r="40.96"/>
<path style="fill:#183651;" d="M252.062,423.643c-26.782,0-48.837-22.055-48.837-48.837c0-26.782,22.055-48.837,48.837-48.837
	s48.837,22.055,48.837,48.837C300.898,401.588,278.843,423.643,252.062,423.643z M252.062,342.511
	c-18.117,0-33.083,14.966-33.083,33.083s14.966,33.083,33.083,33.083c18.117,0,33.083-14.966,33.083-33.083
	S270.178,342.511,252.062,342.511z"/>
<path style="fill:#4FBF9F;" d="M252.062,415.766c-44.111,0-80.345,36.234-80.345,80.345h160.689
	C332.406,452,296.172,415.766,252.062,415.766z"/>
<path style="fill:#183651;" d="M332.406,503.988H171.717c-4.726,0-7.877-3.151-7.877-7.877c0-48.837,39.385-88.222,88.222-88.222
	s88.222,39.385,88.222,88.222C340.283,500.837,337.132,503.988,332.406,503.988z M179.594,488.234h144.148
	c-3.938-36.234-34.658-64.591-72.468-64.591S183.532,452,179.594,488.234z"/>
<circle style="fill:#FFFFFF;" cx="415.902" cy="292.099" r="40.96"/>
<path style="fill:#183651;" d="M415.902,340.936c-26.782,0-48.837-22.055-48.837-48.837s22.055-48.837,48.837-48.837
	c26.782,0,48.837,22.055,48.837,48.837S442.683,340.936,415.902,340.936z M415.902,259.016c-18.117,0-33.083,14.966-33.083,33.083
	s14.966,33.083,33.083,33.083c18.117,0,33.083-14.966,33.083-33.083S434.018,259.016,415.902,259.016z"/>
<path style="fill:#E0E4E8;" d="M415.902,333.059c-44.111,0-80.345,36.234-80.345,80.345h160.689
	C496.246,368.505,460.012,333.059,415.902,333.059z"/>
<path style="fill:#183651;" d="M496.246,421.28H335.557c-4.726,0-7.877-3.151-7.877-7.877c0-48.837,39.385-88.222,88.222-88.222
	s88.222,39.385,88.222,88.222C504.123,417.342,500.972,421.28,496.246,421.28z M343.434,405.526h144.148
	c-3.938-36.234-34.658-64.591-72.468-64.591S347.372,369.293,343.434,405.526z"/>
<g>
</g>
<g>
</g>
<g>
</g>
<g>
</g>
<g>
</g>
<g>
</g>
<g>
</g>
<g>
</g>
<g>
</g>
<g>
</g>
<g>
</g>
<g>
</g>
<g>
</g>
<g>
</g>
<g>
</g>
</svg>
