<?xml version="1.0" encoding="iso-8859-1"?>
<!-- Generator: Adobe Illustrator 19.0.0, SVG Export Plug-In . SVG Version: 6.00 Build 0)  -->
<svg version="1.1" id="Capa_1" xmlns="http://www.w3.org/2000/svg" xmlns:xlink="http://www.w3.org/1999/xlink" x="0px" y="0px"
	 viewBox="0 0 504.123 504.123" style="enable-background:new 0 0 504.123 504.123;" xml:space="preserve">
<circle style="fill:#FBBD5E;" cx="252.062" cy="252.062" r="252.062"/>
<path style="fill:#E0E4E8;" d="M496.246,79.557H7.877v363.126h445.046c24.418,0,43.323-19.692,43.323-43.323V79.557z"/>
<path style="fill:#183651;" d="M452.135,450.56H7.877c-4.726,0-7.877-3.151-7.877-7.877V79.557c0-4.726,3.151-7.877,7.877-7.877
	h488.369c4.726,0,7.877,3.151,7.877,7.877v319.015C504.123,426.929,481.28,450.56,452.135,450.56z M15.754,434.806h436.382
	c19.692,0,36.234-15.754,36.234-35.446V87.434H15.754V434.806z"/>
<path style="fill:#FFFFFF;" d="M39.385,411.175V111.065h425.354v287.508c0,7.089-5.514,11.815-12.603,11.815H39.385V411.175z"/>
<path style="fill:#4FBF9F;" d="M454.498,31.508c-22.843,0-41.748,18.905-41.748,41.748v321.378
	c0-22.843,18.905-41.748,41.748-41.748s41.748,18.905,41.748,41.748V73.255C496.246,50.412,477.342,31.508,454.498,31.508z"/>
<path style="fill:#183651;" d="M496.246,402.511c-4.726,0-7.877-3.151-7.877-7.877c0-18.905-14.966-33.871-33.871-33.871
	s-33.871,14.966-33.871,33.871c0,4.726-3.151,7.877-7.877,7.877c-4.726,0-7.877-3.151-7.877-7.877V73.255
	c0-27.569,22.055-49.625,49.625-49.625c27.569,0,49.625,22.055,49.625,49.625v321.378
	C504.123,399.36,500.972,402.511,496.246,402.511z M454.498,345.009c13.391,0,25.206,4.726,33.871,13.391V73.255
	c0-18.905-14.966-33.871-33.871-33.871s-33.871,14.966-33.871,33.871V358.4C429.292,350.523,441.108,345.009,454.498,345.009z"/>
<rect x="76.406" y="137.058" style="fill:#FFFFFF;" width="270.966" height="37.809"/>
<path style="fill:#183651;" d="M348.16,182.745H76.406c-4.726,0-7.877-3.151-7.877-7.877v-37.809c0-4.726,3.151-7.877,7.877-7.877
	h270.966c4.726,0,7.877,3.151,7.877,7.877v37.809C356.037,179.594,352.098,182.745,348.16,182.745z M84.283,166.991h255.212v-22.055
	H84.283V166.991z"/>
<rect x="76.406" y="218.191" style="fill:#FFFFFF;" width="37.809" height="162.265"/>
<path style="fill:#183651;" d="M115.003,388.332H77.194c-4.726,0-7.877-3.151-7.877-7.877V218.191c0-2.363,0.788-3.938,2.363-5.514
	c1.575-1.575,3.151-2.363,5.514-2.363h37.809c4.726,0,7.877,3.151,7.877,7.877v162.265
	C122.88,384.394,118.942,388.332,115.003,388.332z M84.283,372.578h22.055V226.068H84.283V372.578z"/>
<polygon style="fill:#FFFFFF;" points="159.114,278.843 141.785,248.911 159.114,218.191 194.56,218.191 211.889,248.911 
	194.56,278.843 "/>
<g>
	<path style="fill:#183651;" d="M194.56,286.72h-35.446c-3.151,0-5.514-1.575-7.089-3.938l-17.329-30.72
		c-1.575-2.363-1.575-5.514,0-7.877l17.329-30.72c1.575-2.363,3.938-3.938,7.089-3.938h35.446c3.151,0,5.514,1.575,7.089,3.938
		l17.329,30.72c1.575,2.363,1.575,5.514,0,7.877l-17.329,30.72C200.074,285.145,197.711,286.72,194.56,286.72z M163.84,270.966
		h25.994l12.603-22.843l-12.603-22.843H163.84l-13.391,22.843L163.84,270.966z"/>
	<path style="fill:#183651;" d="M348.16,226.068H241.034c-4.726,0-7.877-3.151-7.877-7.877c0-4.726,3.151-7.877,7.877-7.877H348.16
		c4.726,0,7.877,3.151,7.877,7.877C356.037,222.917,352.098,226.068,348.16,226.068z"/>
	<path style="fill:#183651;" d="M348.16,280.418H241.034c-4.726,0-7.877-3.151-7.877-7.877s3.151-7.877,7.877-7.877H348.16
		c4.726,0,7.877,3.151,7.877,7.877S352.098,280.418,348.16,280.418z"/>
</g>
<path style="fill:#183651;" d="M291.446,388.332H150.449c-4.726,0-7.877-3.151-7.877-7.877s3.151-7.877,7.877-7.877h140.997
	c4.726,0,7.877,3.151,7.877,7.877S295.385,388.332,291.446,388.332z"/>
<g>
	<path style="fill:#183651;" d="M348.16,388.332c-4.726,0-7.877-3.151-7.877-7.877v-58.289c0-4.726,3.151-7.877,7.877-7.877
		s7.877,3.151,7.877,7.877v58.289C356.037,384.394,352.098,388.332,348.16,388.332z"/>
	<rect x="142.572" y="332.406" style="fill:#183651;" width="15.754" height="15.754"/>
	<rect x="174.08" y="332.406" style="fill:#183651;" width="15.754" height="15.754"/>
	<rect x="205.588" y="332.406" style="fill:#183651;" width="15.754" height="15.754"/>
	<rect x="237.095" y="332.406" style="fill:#183651;" width="15.754" height="15.754"/>
	<rect x="268.603" y="332.406" style="fill:#183651;" width="15.754" height="15.754"/>
</g>
<g>
</g>
<g>
</g>
<g>
</g>
<g>
</g>
<g>
</g>
<g>
</g>
<g>
</g>
<g>
</g>
<g>
</g>
<g>
</g>
<g>
</g>
<g>
</g>
<g>
</g>
<g>
</g>
<g>
</g>
</svg>
